<svg xmlns="http://www.w3.org/2000/svg" viewBox="0 0 128 128">
  <rect width="128" height="128" fill="#2563eb"/>
  <path d="M30 86c0-35 14-58 34-58s34 23 34 58c0 16-14 25-34 25s-34-9-34-25Z" fill="#60a5fa"/>
  <path d="M38 42 24 26l2 28 12-12Zm52 0 14-16-2 28-12-12Z" fill="#93c5fd"/>
  <circle cx="51" cy="66" r="14" fill="#fef3c7"/>
  <circle cx="77" cy="66" r="14" fill="#fef3c7"/>
  <circle cx="51" cy="66" r="5" fill="#111827"/>
  <circle cx="77" cy="66" r="5" fill="#111827"/>
  <path d="M58 81h12l-6 9-6-9Z" fill="#f97316"/>
  <path d="M46 98h36" stroke="#1e3a8a" stroke-width="5" stroke-linecap="round"/>
</svg>
