<svg xmlns="http://www.w3.org/2000/svg" viewBox="0 0 128 128">
  <rect width="128" height="128" fill="#fde047"/>
  <path d="m101 19 4 9 10 1-7 7 2 10-9-5-9 5 2-10-7-7 10-1 4-9Z" fill="#fb7185"/>
  <circle cx="40" cy="54" r="18" fill="#c084fc"/>
  <circle cx="88" cy="54" r="18" fill="#c084fc"/>
  <circle cx="64" cy="76" r="37" fill="#e9d5ff"/>
  <circle cx="51" cy="72" r="5" fill="#3b0764"/>
  <circle cx="77" cy="72" r="5" fill="#3b0764"/>
  <path d="M60 82h8l-4 6-4-6Z" fill="#fb7185"/>
  <path d="M47 90h13M68 90h13" stroke="#3b0764" stroke-width="3" stroke-linecap="round"/>
  <path d="M98 100c14-2 18 6 16 15" fill="none" stroke="#c084fc" stroke-width="5" stroke-linecap="round"/>
</svg>
