<svg xmlns="http://www.w3.org/2000/svg" version="1.1" xmlns:xlink="http://www.w3.org/1999/xlink" width="1000" height="1000"><g clip-path="url(#SvgjsClipPath1138)"><rect width="1000" height="1000" fill="#000000"></rect><g transform="matrix(7.142857142857143,0,0,7.142857142857143,0,0)"><svg xmlns="http://www.w3.org/2000/svg" version="1.1" xmlns:xlink="http://www.w3.org/1999/xlink" width="140" height="140"><svg width="140" height="140" viewBox="0 0 140 140" fill="none" xmlns="http://www.w3.org/2000/svg">
<path fill-rule="evenodd" clip-rule="evenodd" d="M115.31 48.6689V107.177H41.5947L24.6904 91.5059V48.6689L41.5947 32.8232H98.4053L115.31 48.6689ZM45.6475 58.374C44.6568 58.374 43.7092 58.7793 43.0244 59.4951L40.0977 62.5537C39.4451 63.2358 39.084 64.1459 39.0908 65.0898L39.1377 71.6846H45.6279L45.5703 68.1885C45.5704 65.6344 46.1791 65.1524 48.8848 65.1523H54.8252C57.5313 65.1523 57.9346 65.6345 57.9346 68.3906V71.6846H64.4902V65.0879C64.4902 64.1449 64.1231 63.2387 63.4668 62.5615L60.4785 59.4775C59.7949 58.7722 58.8543 58.3742 57.8721 58.374H45.6475ZM78.3184 58.374C77.3277 58.374 76.3801 58.7793 75.6953 59.4951L72.7686 62.5537C72.116 63.2358 71.7549 64.1459 71.7617 65.0898L71.8086 71.6846H78.2988L78.2412 68.1885C78.2413 65.6344 78.85 65.1524 81.5557 65.1523H87.4961C90.2022 65.1523 90.6055 65.6345 90.6055 68.3906V71.6846H97.1611V65.0879C97.1611 64.1449 96.794 63.2387 96.1377 62.5615L93.1494 59.4775C92.4658 58.7722 91.5252 58.3742 90.543 58.374H78.3184Z" fill="white"></path>
</svg></svg></g></g><defs><clipPath id="SvgjsClipPath1138"><rect width="1000" height="1000" x="0" y="0" rx="100" ry="100"></rect></clipPath></defs></svg>